<?xml version="1.0" encoding="UTF-8"?><svg xmlns="http://www.w3.org/2000/svg" xmlns:xlink="http://www.w3.org/1999/xlink" viewBox="0 0 24 24" version="1.1"><path d="M12 4c-.46 0-.906.047-1.344.121.426-.937.895-1.676 1.344-2.121.195-.195.012-.516-.262-.46C7.808 2.36 4 7.061 4 12a8 8 0 0 0 8 8c.46 0 .906-.047 1.344-.121-.426.937-.895 1.676-1.344 2.121-.195.195-.012.516.262.46C16.192 21.64 20 16.938 20 12a8 8 0 0 0-8-8zm0 11a3 3 0 1 1 .002-6.002A3 3 0 0 1 12 15z" id="surface1"/><metadata><rdf:RDF xmlns:rdf="http://www.w3.org/1999/02/22-rdf-syntax-ns#" xmlns:rdfs="http://www.w3.org/2000/01/rdf-schema#" xmlns:dc="http://purl.org/dc/elements/1.1/"><rdf:Description about="https://iconscout.com/legal#licenses" dc:title="origin" dc:description="origin" dc:publisher="Iconscout" dc:date="2018-06-22" dc:format="image/svg+xml" dc:language="en"><dc:creator><rdf:Bag><rdf:li>Icons8</rdf:li></rdf:Bag></dc:creator></rdf:Description></rdf:RDF></metadata></svg>